<svg width="35" height="35" viewBox="0 0 35 35" fill="none" xmlns="http://www.w3.org/2000/svg">
<path d="M14 8.75C14 15.5155 19.4845 21 26.25 21C29.6772 21 32.7757 19.5925 34.9991 17.3241C35 17.3827 35 17.4414 35 17.5C35 27.1649 27.1649 35 17.5 35C7.83501 35 0 27.1649 0 17.5C0 7.83501 7.83501 0 17.5 0C17.5586 0 17.6173 -8.71951e-08 17.6759 0.000857413C15.4075 2.22422 14 5.32275 14 8.75ZM3.5 17.5C3.5 25.232 9.76801 31.5 17.5 31.5C22.852 31.5 27.5026 28.4968 29.8585 24.0837C28.6904 24.3577 27.4811 24.5 26.25 24.5C17.5514 24.5 10.5 17.4486 10.5 8.75C10.5 7.51884 10.6423 6.30957 10.9163 5.1415C6.50319 7.4974 3.5 12.148 3.5 17.5Z" fill="#FAFAFA"/>
</svg>
