<svg width="25" height="25" viewBox="0 0 25 25" fill="none" xmlns="http://www.w3.org/2000/svg">
<path d="M12.5 19.3182C8.73442 19.3182 5.68182 16.2656 5.68182 12.5C5.68182 8.73442 8.73442 5.68182 12.5 5.68182C16.2656 5.68182 19.3182 8.73442 19.3182 12.5C19.3182 16.2656 16.2656 19.3182 12.5 19.3182ZM12.5 17.0455C15.0103 17.0455 17.0455 15.0103 17.0455 12.5C17.0455 9.98961 15.0103 7.95455 12.5 7.95455C9.98961 7.95455 7.95455 9.98961 7.95455 12.5C7.95455 15.0103 9.98961 17.0455 12.5 17.0455ZM11.3636 0H13.6364V3.40909H11.3636V0ZM11.3636 21.5909H13.6364V25H11.3636V21.5909ZM2.85764 4.46469L4.46469 2.85764L6.87528 5.26823L5.26823 6.87528L2.85764 4.46469ZM18.1247 19.7318L19.7318 18.1247L22.1424 20.5353L20.5353 22.1424L18.1247 19.7318ZM20.5353 2.85764L22.1424 4.46469L19.7318 6.87528L18.1247 5.26823L20.5353 2.85764ZM5.26823 18.1247L6.87528 19.7318L4.46469 22.1424L2.85764 20.5353L5.26823 18.1247ZM25 11.3636V13.6364H21.5909V11.3636H25ZM3.40909 11.3636V13.6364H0V11.3636H3.40909Z" fill="#FAFAFA"/>
</svg>
